<svg width="13" height="16" viewBox="0 0 13 16">
  <path fill="#61C4B8" fill-rule="evenodd" d="M63.6440433,11.064456 C63.6440433,11.064456 63.5698106,11.0563257 63.4213432,11.040065 C63.2728757,11.0238022 63.1381585,11.0807189 63.0171852,11.2108129 C62.8852151,11.3517496 62.8467241,11.5143651 62.9017124,11.6986658 C62.9566985,11.8829664 62.9841927,11.9751147 62.9841927,11.9751147 L65.0132344,15.3738238 C65.0132344,15.3738238 65.0819666,15.447001 65.2194372,15.5933577 C65.3569057,15.7397142 65.4971235,15.8128914 65.6400904,15.8128914 C65.7940584,15.8128914 65.9287756,15.7749476 66.0442505,15.699059 C66.1597254,15.6231705 66.2174608,15.5852267 66.2174608,15.5852267 L67.8340948,13.2760556 C67.8340948,13.2760556 67.8615889,13.219141 67.9165772,13.1053076 C67.9715633,12.9914742 67.9990575,12.8695126 67.9990575,12.7394185 C68.0100543,12.5551178 67.9248248,12.4331562 67.7433648,12.3735294 C67.5619048,12.3139026 67.471177,12.2840892 67.471177,12.2840892 L63.6440433,11.064456 Z M62.81923,9.50332697 C62.9182076,9.66594667 63.0666729,9.74454431 63.2646281,9.73912407 C63.4625854,9.73370383 63.561563,9.73099371 63.561563,9.73099371 L67.3721994,8.62519395 C67.3721994,8.62519395 67.4629272,8.57911775 67.6443872,8.48696742 C67.8258472,8.39481709 67.9330724,8.27827569 67.9660649,8.13733903 C67.9990575,7.99640446 67.9935591,7.85818001 67.9495676,7.72266568 C67.9055783,7.58714927 67.8835825,7.51939419 67.8835825,7.51939419 L66.0524981,5.38910243 C66.0524981,5.38910243 66.0140072,5.34302831 65.9370253,5.25087798 C65.8600413,5.15872766 65.7390701,5.10181097 65.5741053,5.08012793 C65.3871469,5.06928745 65.2441821,5.13433449 65.1452045,5.27526906 C65.0462248,5.41620572 64.9967371,5.486673 64.9967371,5.486673 L62.8357273,8.86911933 C62.8357273,8.86911933 62.8109824,8.93687649 62.7614925,9.07239082 C62.7120048,9.20790723 62.7312492,9.35154984 62.81923,9.50332697 Z M61.021136,8.18612536 C61.2520858,8.13191879 61.3978019,7.99098631 61.4582886,7.76331957 C61.5187753,7.53565283 61.5490165,7.42182154 61.5490165,7.42182154 L61.5160261,2.02291682 C61.5160261,2.02291682 61.4912811,1.90637542 61.4417913,1.67329052 C61.3923035,1.44020354 61.2960751,1.27487789 61.1531061,1.17730524 C60.9111616,1.03637067 60.7407005,0.979453988 60.6417229,1.00655727 C60.5427453,1.03366055 60.460265,1.05263347 60.39428,1.06347396 L57.2269969,2.23432076 C57.2269969,2.23432076 57.1692595,2.26142404 57.053785,2.31563061 C56.9383107,2.36983509 56.8420834,2.46198542 56.7651004,2.59207951 C56.6441271,2.77638016 56.6523754,2.97151921 56.7898447,3.17750291 C56.9273143,3.38348661 56.9960482,3.48647741 56.9960482,3.48647741 L60.2788051,7.9584607 C60.2788051,7.9584607 60.3502885,8.00995506 60.4932555,8.11294795 C60.6362245,8.21593876 60.812184,8.24033192 61.021136,8.18612536 Z M60.2458125,10.3652014 C60.2458125,10.1592177 60.1605831,9.99660213 59.9901199,9.87734852 C59.8196588,9.75809491 59.7344293,9.69846811 59.7344293,9.69846811 L56.3361975,7.99098422 C56.3361975,7.99098422 56.2427196,7.96388094 56.055761,7.90967646 C55.8688024,7.85546989 55.7148389,7.86089013 55.5938656,7.92593718 C55.4948876,7.99098422 55.4096577,8.06687175 55.3381733,8.15360184 C55.2666892,8.24033192 55.2254491,8.32705993 55.2144515,8.41379002 L55,11.1295031 C55,11.1295031 55,11.2162332 55,11.3896913 C55,11.5631514 55.0274935,11.704086 55.0824813,11.8124991 C55.1704618,11.9642763 55.3161774,12.0184808 55.5196325,11.9751147 C55.7230873,11.9317507 55.8248133,11.9100676 55.8248133,11.9100676 L59.8004144,11.0319346 C59.8773963,10.977728 59.9681242,10.9235215 60.0726023,10.8693149 C60.1770783,10.8151104 60.2348157,10.6470726 60.2458125,10.3652014 Z M61.2355885,11.8287599 C61.0596269,11.7420298 60.889168,11.7528703 60.7242053,11.8612834 C60.5592405,11.9696965 60.4767602,12.023901 60.4767602,12.023901 L57.8208625,14.9347563 C57.8208625,14.9347563 57.7686235,15.0214849 57.6641475,15.1949444 C57.5596693,15.3684042 57.5294281,15.520179 57.5734175,15.6502737 C57.6174068,15.7803685 57.6723951,15.8806483 57.7383801,15.9511164 C57.8043652,16.0215843 57.8813471,16.0785 57.9693278,16.1218648 L60.6417229,16.9674764 C60.6417229,16.9674764 60.7049588,16.9756072 60.8314305,16.991869 C60.9579022,17.0081309 61.087121,17.0000001 61.2190912,16.9674764 C61.3840559,16.9132703 61.4720346,16.7913083 61.4830314,16.6015869 C61.4940303,16.4118654 61.4995287,16.317006 61.4995287,16.317006 L61.5490165,12.3816597 C61.5490165,12.3816597 61.5352705,12.3111925 61.5077763,12.1702558 C61.4802822,12.0293212 61.3895543,11.91549 61.2355885,11.8287599 Z" transform="translate(-55 -1)"/>
</svg>
