<?xml version="1.0" encoding="utf-8"?>
<!-- Generator: Adobe Illustrator 22.0.1, SVG Export Plug-In . SVG Version: 6.00 Build 0)  -->
<svg version="1.1" id="Layer_1" xmlns="http://www.w3.org/2000/svg" xmlns:xlink="http://www.w3.org/1999/xlink" x="0px" y="0px"
	 viewBox="0 0 230.7 231.5" style="enable-background:new 0 0 230.7 231.5;" xml:space="preserve">
<style type="text/css">
	.st0{fill:#063643;}
	.st1{fill:#62C5B9;}
</style>
<g>
	<g>
		<path class="st0" d="M115.4,222.4c-58.6,0-106.3-47.7-106.3-106.3C9.1,57.4,56.8,9.7,115.4,9.7c58.6,0,106.3,47.7,106.3,106.3
			C221.7,174.7,174,222.4,115.4,222.4z M115.4,11.7c-57.5,0-104.3,46.8-104.3,104.3s46.8,104.3,104.3,104.3s104.3-46.8,104.3-104.3
			S172.9,11.7,115.4,11.7z"/>
	</g>
	<g>
		<path class="st0" d="M115.4,231.1C52,231.1,0.3,179.5,0.3,116.1C0.3,52.6,52,1,115.4,1c63.5,0,115.1,51.6,115.1,115.1
			C230.5,179.5,178.9,231.1,115.4,231.1z M115.4,7C55.3,7,6.3,55.9,6.3,116.1s48.9,109.1,109.1,109.1s109.1-48.9,109.1-109.1
			S175.5,7,115.4,7z"/>
	</g>
	<g>
		<g>
			<g>
				<path class="st0" d="M34.2,101.4h17.4v2.7h-1.9c-1.5,0-2,0.5-2,1.5c0,0.5,0.3,1.1,0.5,1.6l6.4,11.7l6-10
					c0.3-0.6,0.7-1.6,0.7-2.6c0-1.6-0.9-2.1-2.3-2.1h-2.4v-2.7h15.2v2.7c-4.4,0.3-5.7,2.2-6.8,4l-8.4,13.6L67,139.4
					c1.5,2.5,3.2,4.2,6.1,4.2h1.1v2.7H55.4v-2.7h1.2c1.7,0,3.3,0,3.3-1.8c0-0.9-0.5-1.7-0.9-2.4l-6.5-12l-6.8,11.2
					c-0.8,1.3-0.9,2.5-0.9,3c0,2,1.6,2.1,2.1,2.1h2.4v2.7H32.6v-2.7h1.3c2.2,0,4.9-1,7.6-5.3l8.7-14.2l-9.4-16.4
					c-1.5-2.6-3.3-3.3-6.6-3.5V101.4z"/>
			</g>
			<g>
				<path class="st0" d="M99.7,101.4v2.7h-3.1c-2.2,0-2.7,0.9-2.7,2v35.6c0,1.8,1.8,1.8,2.4,1.8h4.3c4.6,0,9.5-1.7,9.9-13.8h3.1
					v16.5H81.2v-2.7h3.2c2.1,0,2.6-0.9,2.6-2v-35.4c0-1.1-0.5-2-2.6-2h-3.2v-2.7H99.7z"/>
			</g>
			<g>
				<path class="st0" d="M142.1,101.4c12.1,0,16.6,4.8,16.6,11.2c0,4.8-3.6,10.4-12,11v0.5c5.5,0.9,6.9,5.9,7.5,9
					c0.9,4.2,0.8,9,3.2,9c1.9,0,2.2-2.5,2.2-5.4v-1.2h3.1v1.9c0,3.6-1,9.8-7.7,9.8c-5.4,0-6.7-4.6-7.9-14c-0.5-3.8-1.2-8.8-7.8-8.8
					h-3v16.5c0,1.3,0.1,2.7,2.7,2.7h2.6v2.7h-18v-2.7h3.2c2.6,0,2.6-1.4,2.6-2.7v-34.1c0-1.3-0.1-2.7-2.6-2.7h-3.2v-2.7H142.1z
					 M140.7,121.6c2.4,0,10.4-0.3,10.4-8.9c0-7.9-6.5-8.5-8-8.5h-4.5c-2.4,0-2.4,1.3-2.4,2.6v14.8H140.7z"/>
			</g>
			<g>
				<path class="st0" d="M190.2,121.5c8.8,4.1,8.8,10.1,8.8,12.6c0,5.3-4.1,13.1-14.1,13.1c-6.3,0-12.9-3.9-12.9-11.3
					c0-7.2,4.9-10.3,8.4-11.9v-0.3c-5-3.2-7.1-6.3-7.1-11.2c0-5.8,4-12,12.1-12c7.4,0,11.4,5,11.4,10.2c0,4.9-3.3,8.3-6.7,10.5
					V121.5z M185.5,144.4c5.3,0,7.7-4.2,7.7-8.2c0-6-5.8-8.1-9.6-10.4c-3.8,1.9-6.2,5.5-6.2,10.2
					C177.4,139.1,179.9,144.4,185.5,144.4z M187.2,119.9c3.4-2.2,4.6-5.9,4.6-9.3c0-3.1-1.7-7.2-6.7-7.2c-3.6,0-6.4,2.8-6.4,6.3
					C178.6,114,182.3,117.8,187.2,119.9z"/>
			</g>
		</g>
		<g>
			<g>
				<path class="st0" d="M94.1,181.4L94.1,181.4l-0.5-0.6c-1-1.1-1.7-2.1-1.7-3.6c0-1.9,1.6-4.1,4.7-4.1c2.8,0,4.7,1.8,4.7,4.1
					c0,2.6-2.6,4.1-3.1,4.6l2.9,2.9c0.4-0.8,0.7-1.8,0.9-2.8c0.1-0.5,0.3-0.8,0.8-0.6l1.4,0.4c0.7,0.2,0.5,0.7,0.4,1
					c-0.4,1.8-1.2,3.4-1.6,4l2.2,2.1c0.3,0.3,0.6,0.6-0.1,1.2l-1,1.1c-0.3,0.3-0.7,0.3-1.1-0.1l-1.8-1.8c-0.5,0.5-2.2,2.1-5.5,2.1
					c-3.2,0-5.3-2.2-5.3-4.7C90.7,183.1,93.7,181.6,94.1,181.4z M96.3,188.5c1.9,0,2.9-1.1,3.2-1.5l-3.7-4c-0.4,0.3-2.1,1.1-2.1,3.1
					C93.7,187.5,94.8,188.5,96.3,188.5z M98.7,177.3c0-1-0.8-1.9-2.1-1.9c-1.2,0-1.9,0.8-1.9,1.7c0,0.9,0.6,1.5,1.3,2.3l0.6,0.6
					C96.9,179.7,98.7,178.9,98.7,177.3z"/>
			</g>
			<g>
				<path class="st0" d="M121.8,173.1c2.5,0,4.4,0.8,6.1,2.3c0.2,0.2,0.2,0.5,0,0.7l-1.5,1.6c-0.2,0.2-0.4,0.2-0.6,0
					c-1.1-0.9-2.5-1.5-3.9-1.5c-3.2,0-5.6,2.7-5.6,5.9c0,3.1,2.4,5.8,5.6,5.8c1.5,0,2.8-0.6,3.8-1.4c0.2-0.2,0.5-0.2,0.6,0l1.6,1.6
					c0.2,0.2,0.2,0.5,0,0.7c-1.7,1.7-3.9,2.4-6.1,2.4c-5,0-9.1-4-9.1-9S116.7,173.1,121.8,173.1z"/>
			</g>
			<g>
				<path class="st0" d="M134.4,180.6c2.8,0,5.1,2.4,5.1,5.2c0,2.9-2.3,5.3-5.1,5.3s-5.1-2.4-5.1-5.3
					C129.2,183,131.5,180.6,134.4,180.6z M134.4,188.4c1.3,0,2.4-1.2,2.4-2.6c0-1.4-1.1-2.5-2.4-2.5c-1.4,0-2.4,1.1-2.4,2.5
					C132,187.3,133,188.4,134.4,188.4z"/>
			</g>
		</g>
		<g>
			<path class="st1" d="M80.2,180.6h-35c-0.6,0-1-0.4-1-1s0.4-1,1-1h35c0.6,0,1,0.4,1,1S80.7,180.6,80.2,180.6z"/>
		</g>
		<g>
			<g>
				<path class="st1" d="M101.9,84.4H39.7c-0.6,0-1-0.4-1-1s0.4-1,1-1h62.3c0.6,0,1,0.4,1,1S102.5,84.4,101.9,84.4z"/>
			</g>
			<g>
				<path class="st1" d="M189.5,84.4h-62.3c-0.6,0-1-0.4-1-1s0.4-1,1-1h62.3c0.6,0,1,0.4,1,1S190.1,84.4,189.5,84.4z"/>
			</g>
			<g>
				<g>
					<g>
						<path class="st0" d="M105,62.1c1,0,1.8,0.8,1.8,1.8s-0.8,1.8-1.8,1.8c-1,0-1.8-0.8-1.8-1.8S104,62.1,105,62.1 M105,60.1
							c-2.1,0-3.8,1.7-3.8,3.8s1.7,3.8,3.8,3.8c2.1,0,3.8-1.7,3.8-3.8S107.1,60.1,105,60.1L105,60.1z"/>
					</g>
					<g>
						<path class="st0" d="M129.7,51.7c5.3,0,15.1,7.8,20,12.2c-4.9,4.4-14.6,12.2-20,12.2c-5.3,0-15.1-7.8-20-12.2
							C114.6,59.5,124.3,51.7,129.7,51.7 M129.7,49.7c-8.1,0-22.9,14.2-22.9,14.2s14.8,14.2,22.9,14.2s22.9-14.2,22.9-14.2
							S137.8,49.7,129.7,49.7L129.7,49.7z"/>
					</g>
				</g>
				<g>
					<g>
						<path class="st0" d="M114.5,71.4c1,0,1.8,0.8,1.8,1.8c0,1-0.8,1.8-1.8,1.8s-1.8-0.8-1.8-1.8C112.7,72.2,113.5,71.4,114.5,71.4
							 M114.5,69.4c-2.1,0-3.8,1.7-3.8,3.8c0,2.1,1.7,3.8,3.8,3.8s3.8-1.7,3.8-3.8C118.3,71.1,116.6,69.4,114.5,69.4L114.5,69.4z"/>
					</g>
					<g>
						<path class="st0" d="M114.5,28.4c4.4,4.9,12.2,14.6,12.2,20s-7.8,15.1-12.2,20c-4.4-4.9-12.2-14.6-12.2-20
							S110.1,33.2,114.5,28.4 M114.5,25.4c0,0-14.2,14.8-14.2,22.9s14.2,22.9,14.2,22.9s14.2-14.8,14.2-22.9S114.5,25.4,114.5,25.4
							L114.5,25.4z"/>
					</g>
				</g>
				<g>
					<g>
						<path class="st0" d="M124.1,61.9c1,0,1.8,0.8,1.8,1.8c0,1-0.8,1.8-1.8,1.8s-1.8-0.8-1.8-1.8C122.3,62.7,123.1,61.9,124.1,61.9
							 M124.1,59.9c-2.1,0-3.8,1.7-3.8,3.8s1.7,3.8,3.8,3.8s3.8-1.7,3.8-3.8S126.2,59.9,124.1,59.9L124.1,59.9z"/>
					</g>
					<g>
						<path class="st0" d="M99.4,51.4c5.3,0,15.1,7.8,20,12.2c-4.9,4.4-14.6,12.2-20,12.2s-15.1-7.8-20-12.2
							C84.3,59.3,94.1,51.4,99.4,51.4 M99.4,49.4c-8.1,0-22.9,14.2-22.9,14.2s14.8,14.2,22.9,14.2s22.9-14.2,22.9-14.2
							S107.5,49.4,99.4,49.4L99.4,49.4z"/>
					</g>
				</g>
				<g>
					<g>
						<path class="st0" d="M114.5,53c1,0,1.8,0.8,1.8,1.8s-0.8,1.8-1.8,1.8s-1.8-0.8-1.8-1.8S113.5,53,114.5,53 M114.5,51
							c-2.1,0-3.8,1.7-3.8,3.8s1.7,3.8,3.8,3.8s3.8-1.7,3.8-3.8S116.6,51,114.5,51L114.5,51z"/>
					</g>
					<g>
						<path class="st0" d="M114.5,59.6c4.4,4.9,12.2,14.6,12.2,20c0,5.3-7.8,15.1-12.2,20c-4.4-4.9-12.2-14.6-12.2-20
							C102.2,74.3,110.1,64.5,114.5,59.6 M114.5,56.7c0,0-14.2,14.8-14.2,22.9s14.2,22.9,14.2,22.9s14.2-14.8,14.2-22.9
							S114.5,56.7,114.5,56.7L114.5,56.7z"/>
					</g>
				</g>
				<g>
					<path class="st0" d="M114.5,78.2c-7.9,0-14.3-6.4-14.3-14.3s6.4-14.3,14.3-14.3s14.3,6.4,14.3,14.3S122.3,78.2,114.5,78.2z
						 M114.5,51.7c-6.8,0-12.3,5.5-12.3,12.3c0,6.8,5.5,12.3,12.3,12.3c6.8,0,12.3-5.5,12.3-12.3C126.7,57.2,121.2,51.7,114.5,51.7z
						"/>
				</g>
			</g>
		</g>
		<g>
			<g>
				<path class="st0" d="M43.2,64.4c1.6,0,2.8,1.2,2.8,2.8c0,0.1,0,0.3,0,0.4c0,0.1-0.1,0.3-0.3,0.3h-4.1c0,0.8,0.8,1.6,1.7,1.6
					c0.5,0,1-0.2,1.3-0.4c0.2-0.1,0.3-0.2,0.4,0l0.4,0.6c0.1,0.1,0.1,0.2,0,0.4c-0.4,0.4-1.2,0.8-2.2,0.8c-1.8,0-3-1.4-3-3.2
					C40.2,65.9,41.4,64.4,43.2,64.4z M44.6,66.9c0-0.7-0.6-1.3-1.4-1.3c-0.8,0-1.4,0.6-1.5,1.3H44.6z"/>
			</g>
			<g>
				<path class="st0" d="M47,69.8l0.3-0.6c0.1-0.1,0.2-0.2,0.4-0.1c0,0,0.7,0.4,1.4,0.4c0.5,0,0.7-0.2,0.7-0.5c0-0.4-0.3-0.6-1.2-1
					c-0.9-0.4-1.7-1-1.7-2c0-0.8,0.6-1.6,2.1-1.6c0.8,0,1.5,0.3,1.8,0.5c0.1,0.1,0.2,0.3,0.1,0.4l-0.3,0.5C50.6,66,50.4,66,50.3,66
					c0,0-0.7-0.3-1.2-0.3c-0.5,0-0.7,0.2-0.7,0.5c0,0.4,0.4,0.6,1,0.8c1.1,0.5,2,0.9,2,2.1c0,0.9-0.9,1.8-2.2,1.8
					c-1,0-1.7-0.4-2-0.6C47,70.1,47,69.9,47,69.8z"/>
			</g>
			<g>
				<path class="st0" d="M53.2,65.8h-0.6c-0.2,0-0.3-0.1-0.3-0.3v-0.7c0-0.2,0.1-0.3,0.3-0.3h0.6v-1.7c0-0.1,0.1-0.3,0.3-0.3l0.9,0
					c0.1,0,0.3,0.1,0.3,0.3v1.7h1.5c0.2,0,0.3,0.1,0.3,0.3v0.7c0,0.2-0.1,0.3-0.3,0.3h-1.5v3c0,0.5,0.2,0.6,0.5,0.6
					c0.3,0,0.7-0.2,0.9-0.3c0.2-0.1,0.3,0,0.3,0.1l0.3,0.7c0.1,0.2,0,0.3-0.1,0.4c-0.1,0.1-1,0.5-1.8,0.5c-1.2,0-1.5-0.7-1.5-1.8
					V65.8z"/>
			</g>
			<g>
				<path class="st0" d="M58.7,68.7c0.6,0,1,0.5,1,1c0,0.6-0.5,1-1,1c-0.6,0-1-0.5-1-1C57.7,69.1,58.1,68.7,58.7,68.7z"/>
			</g>
		</g>
		<g>
			<path class="st1" d="M183.9,180.6h-35c-0.6,0-1-0.4-1-1s0.4-1,1-1h35c0.6,0,1,0.4,1,1S184.5,180.6,183.9,180.6z"/>
		</g>
		<g>
			<path class="st1" d="M193.7,164.3H35c-0.6,0-1-0.4-1-1s0.4-1,1-1h158.7c0.6,0,1,0.4,1,1S194.3,164.3,193.7,164.3z"/>
		</g>
		<g>
			<g>
				<path class="st0" d="M162.3,69.4c0.8-1,2.3-2.9,3.1-4c0.4-0.5,0.6-0.9,0.6-1.3c0-0.5-0.4-1.1-1.3-1.1c-0.6,0-1.1,0.4-1.3,0.7
					c-0.1,0.1-0.2,0.1-0.3,0l-0.6-0.6c-0.1-0.1-0.1-0.2,0-0.3c0,0,0.9-1.2,2.4-1.2c1.7,0,2.7,1.1,2.7,2.4c0,0.8-0.3,1.3-0.8,1.9
					c-0.5,0.7-1.4,1.9-2.1,2.7h2.6c0.1,0,0.2,0.1,0.2,0.2v0.8c0,0.1-0.1,0.2-0.2,0.2h-4.7c-0.1,0-0.2-0.1-0.2-0.2V69.4z"/>
			</g>
			<g>
				<path class="st0" d="M168.9,65.8c0-2.6,1.1-4.2,3-4.2s3,1.6,3,4.2c0,2.6-1.1,4.2-3,4.2S168.9,68.4,168.9,65.8z M173.3,65.8
					c0-1.8-0.5-2.8-1.5-2.8c-0.9,0-1.5,1-1.5,2.8c0,1.8,0.5,2.8,1.5,2.8C172.8,68.6,173.3,67.6,173.3,65.8z"/>
			</g>
			<g>
				<path class="st0" d="M176.4,65.8c0-2.6,1.1-4.2,3-4.2s3,1.6,3,4.2c0,2.6-1.1,4.2-3,4.2S176.4,68.4,176.4,65.8z M180.9,65.8
					c0-1.8-0.5-2.8-1.5-2.8c-0.9,0-1.5,1-1.5,2.8c0,1.8,0.5,2.8,1.5,2.8C180.3,68.6,180.9,67.6,180.9,65.8z"/>
			</g>
			<g>
				<path class="st0" d="M183.5,69.4c0.8-1,2.3-2.9,3.1-4c0.4-0.5,0.6-0.9,0.6-1.3c0-0.5-0.4-1.1-1.3-1.1c-0.6,0-1.1,0.4-1.3,0.7
					c-0.1,0.1-0.2,0.1-0.3,0l-0.6-0.6c-0.1-0.1-0.1-0.2,0-0.3c0,0,0.9-1.2,2.4-1.2c1.7,0,2.7,1.1,2.7,2.4c0,0.8-0.3,1.3-0.8,1.9
					c-0.5,0.7-1.4,1.9-2.1,2.7h2.6c0.1,0,0.2,0.1,0.2,0.2v0.8c0,0.1-0.1,0.2-0.2,0.2h-4.7c-0.1,0-0.2-0.1-0.2-0.2V69.4z"/>
			</g>
		</g>
	</g>
</g>
</svg>
